<svg width="8" height="8" viewBox="0 0 8 8" fill="none" xmlns="http://www.w3.org/2000/svg">
<path d="M6.71961 7.78033C7.0125 8.07322 7.48738 8.07322 7.78027 7.78033C8.07316 7.48744 8.07316 7.01256 7.78027 6.71967L5.0606 4L7.78027 1.28033C8.07316 0.987437 8.07316 0.512563 7.78027 0.21967C7.48738 -0.073223 7.0125 -0.073223 6.71961 0.21967L3.99994 2.93934L1.28027 0.21967C0.987376 -0.0732233 0.512503 -0.0732233 0.219609 0.21967C-0.0732836 0.512563 -0.0732836 0.987437 0.219609 1.28033L2.93928 4L0.219609 6.71967C-0.0732843 7.01256 -0.0732843 7.48744 0.219609 7.78033C0.512502 8.07322 0.987376 8.07322 1.28027 7.78033L3.99994 5.06066L6.71961 7.78033Z" fill="#4A4A4A"/>
</svg>
