<svg width="14" height="14" viewBox="0 0 14 14" fill="none" xmlns="http://www.w3.org/2000/svg">
<path fill-rule="evenodd" clip-rule="evenodd" d="M9.41285 10.3833C8.48978 11.0841 7.33856 11.5 6.09021 11.5C3.05264 11.5 0.59021 9.03757 0.59021 6C0.59021 2.96243 3.05264 0.5 6.09021 0.5C9.12778 0.5 11.5902 2.96243 11.5902 6C11.5902 7.24835 11.1743 8.39957 10.4735 9.32264L13.3705 12.2197C13.6634 12.5126 13.6634 12.9874 13.3705 13.2803C13.0776 13.5732 12.6028 13.5732 12.3099 13.2803L9.41285 10.3833ZM10.0902 6C10.0902 8.20914 8.29935 10 6.09021 10C3.88107 10 2.09021 8.20914 2.09021 6C2.09021 3.79086 3.88107 2 6.09021 2C8.29935 2 10.0902 3.79086 10.0902 6Z" fill="#8A8A8A"/>
</svg>
