<svg width="8" height="14" viewBox="0 0 8 14" fill="none" xmlns="http://www.w3.org/2000/svg">
<path d="M4.97409 1.32315C4.48594 0.834992 3.69448 0.834992 3.20633 1.32315L0.55988 3.96959C0.266987 4.26249 0.266987 4.73736 0.55988 5.03025C0.852773 5.32315 1.32765 5.32315 1.62054 5.03025L4.09021 2.56058L6.55988 5.03025C6.85277 5.32315 7.32765 5.32315 7.62054 5.03025C7.91343 4.73736 7.91343 4.26249 7.62054 3.96959L4.97409 1.32315Z" fill="#8A8A8A"/>
<path d="M7.62054 10.0304L4.97409 12.6769C4.48594 13.165 3.69448 13.165 3.20633 12.6769L0.55988 10.0304C0.266987 9.73751 0.266987 9.26264 0.55988 8.96975C0.852773 8.67685 1.32765 8.67685 1.62054 8.96975L4.09021 11.4394L6.55988 8.96975C6.85277 8.67685 7.32765 8.67685 7.62054 8.96975C7.91343 9.26264 7.91343 9.73751 7.62054 10.0304Z" fill="#8A8A8A"/>
</svg>
